<?xml version="1.0" encoding="utf-8" ?>
<svg width="512" height="512" viewBox="0 0 512 512" xmlns="http://www.w3.org/2000/svg" xmlns:xlink="http://www.w3.org/1999/xlink">
    <defs>
        <svg viewBox="0 0 268.5 268.5" height="100%" width="100%" pointer-events="none" display="block" id="svg-yin_yang" enable-background="new 0 0 268.5 268.5">
            <path fill-rule="evenodd" clip-rule="evenodd" d="M134.2 268.5c-74 0-134.2-60.2-134.2-134.3 0-74 60.2-134.2 134.2-134.2 74 0 134.2 60.2 134.2 134.2.1 74.1-60.1 134.3-134.2 134.3zm-.5-48.5c11.5 0 20.9-9.3 20.9-20.9s-9.3-20.9-20.9-20.9-20.9 9.3-20.9 20.9 9.4 20.9 20.9 20.9zm.5-211c-69 0-125.2 56.2-125.2 125.2 0 53 33.1 98.4 79.6 116.6-14.3-12.7-23.5-31.2-23.5-51.8 0-38.3 31.3-69.4 69.5-69.4 33.3 0 60.1-27.1 60.1-60.4s-26.6-60.2-60.5-60.2zm-.5 81.8c-11.8 0-21.4-9.6-21.4-21.4s9.6-21.4 21.4-21.4 21.4 9.6 21.4 21.4-9.6 21.4-21.4 21.4z" />
        </svg>
    </defs>
</svg>
